<mxfile host="Electron" agent="Mozilla/5.0 (Windows NT 10.0; Win64; x64) AppleWebKit/537.36 (KHTML, like Gecko) draw.io/25.0.1 Chrome/128.0.6613.186 Electron/32.2.6 Safari/537.36" version="25.0.1" pages="2">
  <diagram id="ByuzTfWAhsFWjVy16ImF" name="database">
    <mxGraphModel dx="683" dy="398" grid="1" gridSize="10" guides="1" tooltips="1" connect="1" arrows="1" fold="1" page="1" pageScale="1" pageWidth="850" pageHeight="1100" math="0" shadow="0">
      <root>
        <mxCell id="0" />
        <mxCell id="1" parent="0" />
        <mxCell id="gSuRSlL41oqAudCzmP_L-11" value="compensations" style="swimlane;fontStyle=0;childLayout=stackLayout;horizontal=1;startSize=30;horizontalStack=0;resizeParent=1;resizeParentMax=0;resizeLast=0;collapsible=1;marginBottom=0;whiteSpace=wrap;html=1;fillColor=#f5f5f5;strokeColor=#666666;fontColor=#333333;fontFamily=Computer Modern;fontSize=16;" parent="1" vertex="1">
          <mxGeometry x="380" y="310" width="160" height="120" as="geometry" />
        </mxCell>
        <mxCell id="gSuRSlL41oqAudCzmP_L-12" value="id: int [PK]" style="text;strokeColor=#666666;fillColor=#f5f5f5;align=left;verticalAlign=middle;spacingLeft=4;spacingRight=4;overflow=hidden;points=[[0,0.5],[1,0.5]];portConstraint=eastwest;rotatable=0;whiteSpace=wrap;html=1;fontColor=#333333;fontFamily=Computer Modern;fontSize=16;" parent="gSuRSlL41oqAudCzmP_L-11" vertex="1">
          <mxGeometry y="30" width="160" height="30" as="geometry" />
        </mxCell>
        <mxCell id="gSuRSlL41oqAudCzmP_L-13" value="simulation_id: int [FK]" style="text;strokeColor=#666666;fillColor=#f5f5f5;align=left;verticalAlign=middle;spacingLeft=4;spacingRight=4;overflow=hidden;points=[[0,0.5],[1,0.5]];portConstraint=eastwest;rotatable=0;whiteSpace=wrap;html=1;fontColor=#333333;fontFamily=Computer Modern;fontSize=16;" parent="gSuRSlL41oqAudCzmP_L-11" vertex="1">
          <mxGeometry y="60" width="160" height="30" as="geometry" />
        </mxCell>
        <mxCell id="gSuRSlL41oqAudCzmP_L-14" value="compensation: float" style="text;strokeColor=#666666;fillColor=#f5f5f5;align=left;verticalAlign=middle;spacingLeft=4;spacingRight=4;overflow=hidden;points=[[0,0.5],[1,0.5]];portConstraint=eastwest;rotatable=0;whiteSpace=wrap;html=1;fontColor=#333333;fontFamily=Computer Modern;fontSize=16;" parent="gSuRSlL41oqAudCzmP_L-11" vertex="1">
          <mxGeometry y="90" width="160" height="30" as="geometry" />
        </mxCell>
        <mxCell id="gSuRSlL41oqAudCzmP_L-19" value="loop_simulations" style="swimlane;fontStyle=0;childLayout=stackLayout;horizontal=1;startSize=30;horizontalStack=0;resizeParent=1;resizeParentMax=0;resizeLast=0;collapsible=1;marginBottom=0;whiteSpace=wrap;html=1;fillColor=#f5f5f5;strokeColor=#666666;fontColor=#333333;fontFamily=Computer Modern;fontSize=16;" parent="1" vertex="1">
          <mxGeometry x="30" y="150" width="300" height="390" as="geometry" />
        </mxCell>
        <mxCell id="gSuRSlL41oqAudCzmP_L-20" value="id: int [PK]" style="text;strokeColor=#666666;fillColor=#f5f5f5;align=left;verticalAlign=middle;spacingLeft=4;spacingRight=4;overflow=hidden;points=[[0,0.5],[1,0.5]];portConstraint=eastwest;rotatable=0;whiteSpace=wrap;html=1;fontColor=#333333;fontFamily=Computer Modern;fontSize=16;" parent="gSuRSlL41oqAudCzmP_L-19" vertex="1">
          <mxGeometry y="30" width="300" height="30" as="geometry" />
        </mxCell>
        <mxCell id="9g8HrfXZKX0gZ8bXr7Jw-6" style="edgeStyle=orthogonalEdgeStyle;rounded=0;orthogonalLoop=1;jettySize=auto;html=1;exitX=1;exitY=0.5;exitDx=0;exitDy=0;fillColor=#f5f5f5;strokeColor=#666666;fontFamily=Computer Modern;fontSize=16;" parent="gSuRSlL41oqAudCzmP_L-19" source="gSuRSlL41oqAudCzmP_L-20" target="gSuRSlL41oqAudCzmP_L-20" edge="1">
          <mxGeometry relative="1" as="geometry" />
        </mxCell>
        <mxCell id="UrSm05B5HOUzW5eLRyXA-6" value="started_at: datetime" style="text;strokeColor=#666666;fillColor=#f5f5f5;align=left;verticalAlign=middle;spacingLeft=4;spacingRight=4;overflow=hidden;points=[[0,0.5],[1,0.5]];portConstraint=eastwest;rotatable=0;whiteSpace=wrap;html=1;fontColor=#333333;fontFamily=Computer Modern;fontSize=16;" parent="gSuRSlL41oqAudCzmP_L-19" vertex="1">
          <mxGeometry y="60" width="300" height="30" as="geometry" />
        </mxCell>
        <mxCell id="UrSm05B5HOUzW5eLRyXA-7" value="finished_at: datetime" style="text;strokeColor=#666666;fillColor=#f5f5f5;align=left;verticalAlign=middle;spacingLeft=4;spacingRight=4;overflow=hidden;points=[[0,0.5],[1,0.5]];portConstraint=eastwest;rotatable=0;whiteSpace=wrap;html=1;fontColor=#333333;fontFamily=Computer Modern;fontSize=16;" parent="gSuRSlL41oqAudCzmP_L-19" vertex="1">
          <mxGeometry y="90" width="300" height="30" as="geometry" />
        </mxCell>
        <mxCell id="UrSm05B5HOUzW5eLRyXA-11" value="random_target_load_ev: char[200]" style="text;strokeColor=#666666;fillColor=#f5f5f5;align=left;verticalAlign=middle;spacingLeft=4;spacingRight=4;overflow=hidden;points=[[0,0.5],[1,0.5]];portConstraint=eastwest;rotatable=0;whiteSpace=wrap;html=1;fontColor=#333333;fontFamily=Computer Modern;fontSize=16;" parent="gSuRSlL41oqAudCzmP_L-19" vertex="1">
          <mxGeometry y="120" width="300" height="30" as="geometry" />
        </mxCell>
        <mxCell id="UrSm05B5HOUzW5eLRyXA-10" value="random_target_load_pv: char[200]" style="text;strokeColor=#666666;fillColor=#f5f5f5;align=left;verticalAlign=middle;spacingLeft=4;spacingRight=4;overflow=hidden;points=[[0,0.5],[1,0.5]];portConstraint=eastwest;rotatable=0;whiteSpace=wrap;html=1;fontColor=#333333;fontFamily=Computer Modern;fontSize=16;" parent="gSuRSlL41oqAudCzmP_L-19" vertex="1">
          <mxGeometry y="150" width="300" height="30" as="geometry" />
        </mxCell>
        <mxCell id="UrSm05B5HOUzW5eLRyXA-12" value="random_ev_kwh: char[600]" style="text;strokeColor=#666666;fillColor=#f5f5f5;align=left;verticalAlign=middle;spacingLeft=4;spacingRight=4;overflow=hidden;points=[[0,0.5],[1,0.5]];portConstraint=eastwest;rotatable=0;whiteSpace=wrap;html=1;fontColor=#333333;fontFamily=Computer Modern;fontSize=16;" parent="gSuRSlL41oqAudCzmP_L-19" vertex="1">
          <mxGeometry y="180" width="300" height="30" as="geometry" />
        </mxCell>
        <mxCell id="UrSm05B5HOUzW5eLRyXA-13" value="random_pv_shapes_possibilities: char[300]" style="text;strokeColor=#666666;fillColor=#f5f5f5;align=left;verticalAlign=middle;spacingLeft=4;spacingRight=4;overflow=hidden;points=[[0,0.5],[1,0.5]];portConstraint=eastwest;rotatable=0;whiteSpace=wrap;html=1;fontColor=#333333;fontFamily=Computer Modern;fontSize=16;" parent="gSuRSlL41oqAudCzmP_L-19" vertex="1">
          <mxGeometry y="210" width="300" height="30" as="geometry" />
        </mxCell>
        <mxCell id="UrSm05B5HOUzW5eLRyXA-14" value="random_phases_ev: char[600]" style="text;strokeColor=#666666;fillColor=#f5f5f5;align=left;verticalAlign=middle;spacingLeft=4;spacingRight=4;overflow=hidden;points=[[0,0.5],[1,0.5]];portConstraint=eastwest;rotatable=0;whiteSpace=wrap;html=1;fontColor=#333333;fontFamily=Computer Modern;fontSize=16;" parent="gSuRSlL41oqAudCzmP_L-19" vertex="1">
          <mxGeometry y="240" width="300" height="30" as="geometry" />
        </mxCell>
        <mxCell id="UrSm05B5HOUzW5eLRyXA-15" value="random_phases_pv: char[600]" style="text;strokeColor=#666666;fillColor=#f5f5f5;align=left;verticalAlign=middle;spacingLeft=4;spacingRight=4;overflow=hidden;points=[[0,0.5],[1,0.5]];portConstraint=eastwest;rotatable=0;whiteSpace=wrap;html=1;fontColor=#333333;fontFamily=Computer Modern;fontSize=16;" parent="gSuRSlL41oqAudCzmP_L-19" vertex="1">
          <mxGeometry y="270" width="300" height="30" as="geometry" />
        </mxCell>
        <mxCell id="UrSm05B5HOUzW5eLRyXA-16" value="random_ev_chargers_power: char[600]" style="text;strokeColor=#666666;fillColor=#f5f5f5;align=left;verticalAlign=middle;spacingLeft=4;spacingRight=4;overflow=hidden;points=[[0,0.5],[1,0.5]];portConstraint=eastwest;rotatable=0;whiteSpace=wrap;html=1;fontColor=#333333;fontFamily=Computer Modern;fontSize=16;" parent="gSuRSlL41oqAudCzmP_L-19" vertex="1">
          <mxGeometry y="300" width="300" height="30" as="geometry" />
        </mxCell>
        <mxCell id="UrSm05B5HOUzW5eLRyXA-17" value="random_max_power_pv: char[600]" style="text;strokeColor=#666666;fillColor=#f5f5f5;align=left;verticalAlign=middle;spacingLeft=4;spacingRight=4;overflow=hidden;points=[[0,0.5],[1,0.5]];portConstraint=eastwest;rotatable=0;whiteSpace=wrap;html=1;fontColor=#333333;fontFamily=Computer Modern;fontSize=16;" parent="gSuRSlL41oqAudCzmP_L-19" vertex="1">
          <mxGeometry y="330" width="300" height="30" as="geometry" />
        </mxCell>
        <mxCell id="UrSm05B5HOUzW5eLRyXA-18" value="random_ev_shapes_by_day: char[4000]" style="text;strokeColor=#666666;fillColor=#f5f5f5;align=left;verticalAlign=middle;spacingLeft=4;spacingRight=4;overflow=hidden;points=[[0,0.5],[1,0.5]];portConstraint=eastwest;rotatable=0;whiteSpace=wrap;html=1;fontColor=#333333;fontFamily=Computer Modern;fontSize=16;" parent="gSuRSlL41oqAudCzmP_L-19" vertex="1">
          <mxGeometry y="360" width="300" height="30" as="geometry" />
        </mxCell>
        <mxCell id="gSuRSlL41oqAudCzmP_L-28" value="voltages_data" style="swimlane;fontStyle=0;childLayout=stackLayout;horizontal=1;startSize=30;horizontalStack=0;resizeParent=1;resizeParentMax=0;resizeLast=0;collapsible=1;marginBottom=0;whiteSpace=wrap;html=1;fillColor=#f5f5f5;strokeColor=#666666;fontColor=#333333;fontFamily=Computer Modern;fontSize=16;" parent="1" vertex="1">
          <mxGeometry x="620" y="90" width="160" height="240" as="geometry" />
        </mxCell>
        <mxCell id="gSuRSlL41oqAudCzmP_L-29" value="id: int [PK]" style="text;strokeColor=#666666;fillColor=#f5f5f5;align=left;verticalAlign=middle;spacingLeft=4;spacingRight=4;overflow=hidden;points=[[0,0.5],[1,0.5]];portConstraint=eastwest;rotatable=0;whiteSpace=wrap;html=1;fontColor=#333333;fontFamily=Computer Modern;fontSize=16;" parent="gSuRSlL41oqAudCzmP_L-28" vertex="1">
          <mxGeometry y="30" width="160" height="30" as="geometry" />
        </mxCell>
        <mxCell id="gSuRSlL41oqAudCzmP_L-30" value="simulation_id: int [FK]" style="text;strokeColor=#666666;fillColor=#f5f5f5;align=left;verticalAlign=middle;spacingLeft=4;spacingRight=4;overflow=hidden;points=[[0,0.5],[1,0.5]];portConstraint=eastwest;rotatable=0;whiteSpace=wrap;html=1;fontColor=#333333;fontFamily=Computer Modern;fontSize=16;" parent="gSuRSlL41oqAudCzmP_L-28" vertex="1">
          <mxGeometry y="60" width="160" height="30" as="geometry" />
        </mxCell>
        <mxCell id="gSuRSlL41oqAudCzmP_L-33" value="n_res: int" style="text;strokeColor=#666666;fillColor=#f5f5f5;align=left;verticalAlign=middle;spacingLeft=4;spacingRight=4;overflow=hidden;points=[[0,0.5],[1,0.5]];portConstraint=eastwest;rotatable=0;whiteSpace=wrap;html=1;fontColor=#333333;fontFamily=Computer Modern;fontSize=16;" parent="gSuRSlL41oqAudCzmP_L-28" vertex="1">
          <mxGeometry y="90" width="160" height="30" as="geometry" />
        </mxCell>
        <mxCell id="gSuRSlL41oqAudCzmP_L-34" value="n_day: int" style="text;strokeColor=#666666;fillColor=#f5f5f5;align=left;verticalAlign=middle;spacingLeft=4;spacingRight=4;overflow=hidden;points=[[0,0.5],[1,0.5]];portConstraint=eastwest;rotatable=0;whiteSpace=wrap;html=1;fontColor=#333333;fontFamily=Computer Modern;fontSize=16;" parent="gSuRSlL41oqAudCzmP_L-28" vertex="1">
          <mxGeometry y="120" width="160" height="30" as="geometry" />
        </mxCell>
        <mxCell id="gSuRSlL41oqAudCzmP_L-37" value="v1: float" style="text;strokeColor=#666666;fillColor=#f5f5f5;align=left;verticalAlign=middle;spacingLeft=4;spacingRight=4;overflow=hidden;points=[[0,0.5],[1,0.5]];portConstraint=eastwest;rotatable=0;whiteSpace=wrap;html=1;fontColor=#333333;fontFamily=Computer Modern;fontSize=16;" parent="gSuRSlL41oqAudCzmP_L-28" vertex="1">
          <mxGeometry y="150" width="160" height="30" as="geometry" />
        </mxCell>
        <mxCell id="gSuRSlL41oqAudCzmP_L-39" value="v2: float" style="text;strokeColor=#666666;fillColor=#f5f5f5;align=left;verticalAlign=middle;spacingLeft=4;spacingRight=4;overflow=hidden;points=[[0,0.5],[1,0.5]];portConstraint=eastwest;rotatable=0;whiteSpace=wrap;html=1;fontColor=#333333;fontFamily=Computer Modern;fontSize=16;" parent="gSuRSlL41oqAudCzmP_L-28" vertex="1">
          <mxGeometry y="180" width="160" height="30" as="geometry" />
        </mxCell>
        <mxCell id="gSuRSlL41oqAudCzmP_L-41" value="v3: float" style="text;strokeColor=#666666;fillColor=#f5f5f5;align=left;verticalAlign=middle;spacingLeft=4;spacingRight=4;overflow=hidden;points=[[0,0.5],[1,0.5]];portConstraint=eastwest;rotatable=0;whiteSpace=wrap;html=1;fontColor=#333333;fontFamily=Computer Modern;fontSize=16;" parent="gSuRSlL41oqAudCzmP_L-28" vertex="1">
          <mxGeometry y="210" width="160" height="30" as="geometry" />
        </mxCell>
        <mxCell id="gSuRSlL41oqAudCzmP_L-66" value="losses" style="swimlane;fontStyle=0;childLayout=stackLayout;horizontal=1;startSize=30;horizontalStack=0;resizeParent=1;resizeParentMax=0;resizeLast=0;collapsible=1;marginBottom=0;whiteSpace=wrap;html=1;fillColor=#f5f5f5;strokeColor=#666666;fontColor=#333333;fontFamily=Computer Modern;fontSize=16;" parent="1" vertex="1">
          <mxGeometry x="380" y="440" width="160" height="150" as="geometry" />
        </mxCell>
        <mxCell id="gSuRSlL41oqAudCzmP_L-67" value="id: int [PK]" style="text;strokeColor=#666666;fillColor=#f5f5f5;align=left;verticalAlign=middle;spacingLeft=4;spacingRight=4;overflow=hidden;points=[[0,0.5],[1,0.5]];portConstraint=eastwest;rotatable=0;whiteSpace=wrap;html=1;fontColor=#333333;fontFamily=Computer Modern;fontSize=16;" parent="gSuRSlL41oqAudCzmP_L-66" vertex="1">
          <mxGeometry y="30" width="160" height="30" as="geometry" />
        </mxCell>
        <mxCell id="gSuRSlL41oqAudCzmP_L-68" value="simulation_id: int [FK]" style="text;strokeColor=#666666;fillColor=#f5f5f5;align=left;verticalAlign=middle;spacingLeft=4;spacingRight=4;overflow=hidden;points=[[0,0.5],[1,0.5]];portConstraint=eastwest;rotatable=0;whiteSpace=wrap;html=1;fontColor=#333333;fontFamily=Computer Modern;fontSize=16;" parent="gSuRSlL41oqAudCzmP_L-66" vertex="1">
          <mxGeometry y="60" width="160" height="30" as="geometry" />
        </mxCell>
        <mxCell id="gSuRSlL41oqAudCzmP_L-71" value="n_day: int" style="text;strokeColor=#666666;fillColor=#f5f5f5;align=left;verticalAlign=middle;spacingLeft=4;spacingRight=4;overflow=hidden;points=[[0,0.5],[1,0.5]];portConstraint=eastwest;rotatable=0;whiteSpace=wrap;html=1;fontColor=#333333;fontFamily=Computer Modern;fontSize=16;" parent="gSuRSlL41oqAudCzmP_L-66" vertex="1">
          <mxGeometry y="90" width="160" height="30" as="geometry" />
        </mxCell>
        <mxCell id="gSuRSlL41oqAudCzmP_L-72" value="loss: float" style="text;strokeColor=#666666;fillColor=#f5f5f5;align=left;verticalAlign=middle;spacingLeft=4;spacingRight=4;overflow=hidden;points=[[0,0.5],[1,0.5]];portConstraint=eastwest;rotatable=0;whiteSpace=wrap;html=1;fontColor=#333333;fontFamily=Computer Modern;fontSize=16;" parent="gSuRSlL41oqAudCzmP_L-66" vertex="1">
          <mxGeometry y="120" width="160" height="30" as="geometry" />
        </mxCell>
        <mxCell id="gSuRSlL41oqAudCzmP_L-82" value="energy_meters" style="swimlane;fontStyle=0;childLayout=stackLayout;horizontal=1;startSize=30;horizontalStack=0;resizeParent=1;resizeParentMax=0;resizeLast=0;collapsible=1;marginBottom=0;whiteSpace=wrap;html=1;fillColor=#f5f5f5;strokeColor=#666666;fontColor=#333333;fontFamily=Computer Modern;fontSize=16;" parent="1" vertex="1">
          <mxGeometry x="620" y="380" width="160" height="210" as="geometry" />
        </mxCell>
        <mxCell id="gSuRSlL41oqAudCzmP_L-83" value="id: int [PK]" style="text;strokeColor=#666666;fillColor=#f5f5f5;align=left;verticalAlign=middle;spacingLeft=4;spacingRight=4;overflow=hidden;points=[[0,0.5],[1,0.5]];portConstraint=eastwest;rotatable=0;whiteSpace=wrap;html=1;fontColor=#333333;fontFamily=Computer Modern;fontSize=16;" parent="gSuRSlL41oqAudCzmP_L-82" vertex="1">
          <mxGeometry y="30" width="160" height="30" as="geometry" />
        </mxCell>
        <mxCell id="gSuRSlL41oqAudCzmP_L-84" value="simulation_id: int [FK]" style="text;strokeColor=#666666;fillColor=#f5f5f5;align=left;verticalAlign=middle;spacingLeft=4;spacingRight=4;overflow=hidden;points=[[0,0.5],[1,0.5]];portConstraint=eastwest;rotatable=0;whiteSpace=wrap;html=1;fontColor=#333333;fontFamily=Computer Modern;fontSize=16;" parent="gSuRSlL41oqAudCzmP_L-82" vertex="1">
          <mxGeometry y="60" width="160" height="30" as="geometry" />
        </mxCell>
        <mxCell id="gSuRSlL41oqAudCzmP_L-86" value="n_day: int" style="text;strokeColor=#666666;fillColor=#f5f5f5;align=left;verticalAlign=middle;spacingLeft=4;spacingRight=4;overflow=hidden;points=[[0,0.5],[1,0.5]];portConstraint=eastwest;rotatable=0;whiteSpace=wrap;html=1;fontColor=#333333;fontFamily=Computer Modern;fontSize=16;" parent="gSuRSlL41oqAudCzmP_L-82" vertex="1">
          <mxGeometry y="90" width="160" height="30" as="geometry" />
        </mxCell>
        <mxCell id="gSuRSlL41oqAudCzmP_L-88" value="n_res: int" style="text;strokeColor=#666666;fillColor=#f5f5f5;align=left;verticalAlign=middle;spacingLeft=4;spacingRight=4;overflow=hidden;points=[[0,0.5],[1,0.5]];portConstraint=eastwest;rotatable=0;whiteSpace=wrap;html=1;fontColor=#333333;fontFamily=Computer Modern;fontSize=16;" parent="gSuRSlL41oqAudCzmP_L-82" vertex="1">
          <mxGeometry y="120" width="160" height="30" as="geometry" />
        </mxCell>
        <mxCell id="gSuRSlL41oqAudCzmP_L-87" value="energy: float" style="text;strokeColor=#666666;fillColor=#f5f5f5;align=left;verticalAlign=middle;spacingLeft=4;spacingRight=4;overflow=hidden;points=[[0,0.5],[1,0.5]];portConstraint=eastwest;rotatable=0;whiteSpace=wrap;html=1;fontColor=#333333;fontFamily=Computer Modern;fontSize=16;" parent="gSuRSlL41oqAudCzmP_L-82" vertex="1">
          <mxGeometry y="150" width="160" height="30" as="geometry" />
        </mxCell>
        <mxCell id="VLXd6G6j0hehMdsDS7tt-6" value="bus: char[2]" style="text;strokeColor=#666666;fillColor=#f5f5f5;align=left;verticalAlign=middle;spacingLeft=4;spacingRight=4;overflow=hidden;points=[[0,0.5],[1,0.5]];portConstraint=eastwest;rotatable=0;whiteSpace=wrap;html=1;fontColor=#333333;fontFamily=Computer Modern;fontSize=16;" parent="gSuRSlL41oqAudCzmP_L-82" vertex="1">
          <mxGeometry y="180" width="160" height="30" as="geometry" />
        </mxCell>
        <mxCell id="j06lZG9dQ--dD_zM-TU6-6" value="simulation" style="swimlane;fontStyle=0;childLayout=stackLayout;horizontal=1;startSize=30;horizontalStack=0;resizeParent=1;resizeParentMax=0;resizeLast=0;collapsible=1;marginBottom=0;whiteSpace=wrap;html=1;fillColor=#f5f5f5;strokeColor=#666666;fontColor=#333333;fontFamily=Computer Modern;fontSize=16;" parent="1" vertex="1">
          <mxGeometry x="370" y="120" width="180" height="180" as="geometry" />
        </mxCell>
        <mxCell id="j06lZG9dQ--dD_zM-TU6-7" value="id: int [PK]" style="text;strokeColor=#666666;fillColor=#f5f5f5;align=left;verticalAlign=middle;spacingLeft=4;spacingRight=4;overflow=hidden;points=[[0,0.5],[1,0.5]];portConstraint=eastwest;rotatable=0;whiteSpace=wrap;html=1;fontColor=#333333;fontFamily=Computer Modern;fontSize=16;" parent="j06lZG9dQ--dD_zM-TU6-6" vertex="1">
          <mxGeometry y="30" width="180" height="30" as="geometry" />
        </mxCell>
        <mxCell id="j06lZG9dQ--dD_zM-TU6-8" value="loop_simulation: int [FK]" style="text;strokeColor=#666666;fillColor=#f5f5f5;align=left;verticalAlign=middle;spacingLeft=4;spacingRight=4;overflow=hidden;points=[[0,0.5],[1,0.5]];portConstraint=eastwest;rotatable=0;whiteSpace=wrap;html=1;fontColor=#333333;fontFamily=Computer Modern;fontSize=16;" parent="j06lZG9dQ--dD_zM-TU6-6" vertex="1">
          <mxGeometry y="60" width="180" height="30" as="geometry" />
        </mxCell>
        <mxCell id="j06lZG9dQ--dD_zM-TU6-9" value="control_mode: char[12&lt;span style=&quot;background-color: initial;&quot;&gt;]&lt;/span&gt;" style="text;strokeColor=#666666;fillColor=#f5f5f5;align=left;verticalAlign=middle;spacingLeft=4;spacingRight=4;overflow=hidden;points=[[0,0.5],[1,0.5]];portConstraint=eastwest;rotatable=0;whiteSpace=wrap;html=1;fontColor=#333333;fontFamily=Computer Modern;fontSize=16;" parent="j06lZG9dQ--dD_zM-TU6-6" vertex="1">
          <mxGeometry y="90" width="180" height="30" as="geometry" />
        </mxCell>
        <mxCell id="j06lZG9dQ--dD_zM-TU6-10" style="edgeStyle=orthogonalEdgeStyle;rounded=0;orthogonalLoop=1;jettySize=auto;html=1;exitX=1;exitY=0.5;exitDx=0;exitDy=0;fillColor=#f5f5f5;strokeColor=#666666;fontFamily=Computer Modern;fontSize=16;" parent="j06lZG9dQ--dD_zM-TU6-6" source="j06lZG9dQ--dD_zM-TU6-7" target="j06lZG9dQ--dD_zM-TU6-7" edge="1">
          <mxGeometry relative="1" as="geometry" />
        </mxCell>
        <mxCell id="UrSm05B5HOUzW5eLRyXA-8" value="started_at: datetime" style="text;strokeColor=#666666;fillColor=#f5f5f5;align=left;verticalAlign=middle;spacingLeft=4;spacingRight=4;overflow=hidden;points=[[0,0.5],[1,0.5]];portConstraint=eastwest;rotatable=0;whiteSpace=wrap;html=1;fontColor=#333333;fontFamily=Computer Modern;fontSize=16;" parent="j06lZG9dQ--dD_zM-TU6-6" vertex="1">
          <mxGeometry y="120" width="180" height="30" as="geometry" />
        </mxCell>
        <mxCell id="UrSm05B5HOUzW5eLRyXA-9" value="finished_at: datetime" style="text;strokeColor=#666666;fillColor=#f5f5f5;align=left;verticalAlign=middle;spacingLeft=4;spacingRight=4;overflow=hidden;points=[[0,0.5],[1,0.5]];portConstraint=eastwest;rotatable=0;whiteSpace=wrap;html=1;fontColor=#333333;fontFamily=Computer Modern;fontSize=16;" parent="j06lZG9dQ--dD_zM-TU6-6" vertex="1">
          <mxGeometry y="150" width="180" height="30" as="geometry" />
        </mxCell>
        <mxCell id="j06lZG9dQ--dD_zM-TU6-12" style="edgeStyle=orthogonalEdgeStyle;rounded=0;orthogonalLoop=1;jettySize=auto;html=1;exitX=1;exitY=0.5;exitDx=0;exitDy=0;strokeColor=#666666;endArrow=ERoneToMany;endFill=0;startArrow=ERmandOne;startFill=0;fillColor=#f5f5f5;fontFamily=Computer Modern;fontSize=16;" parent="1" source="j06lZG9dQ--dD_zM-TU6-7" target="gSuRSlL41oqAudCzmP_L-30" edge="1">
          <mxGeometry relative="1" as="geometry" />
        </mxCell>
        <mxCell id="j06lZG9dQ--dD_zM-TU6-14" style="edgeStyle=orthogonalEdgeStyle;rounded=0;orthogonalLoop=1;jettySize=auto;html=1;exitX=1;exitY=0.5;exitDx=0;exitDy=0;entryX=0;entryY=0.5;entryDx=0;entryDy=0;strokeColor=#666666;endArrow=ERoneToMany;endFill=0;startArrow=ERmandOne;startFill=0;fillColor=#f5f5f5;fontFamily=Computer Modern;fontSize=16;" parent="1" source="j06lZG9dQ--dD_zM-TU6-7" target="gSuRSlL41oqAudCzmP_L-84" edge="1">
          <mxGeometry relative="1" as="geometry">
            <Array as="points">
              <mxPoint x="590" y="165" />
              <mxPoint x="590" y="455" />
            </Array>
          </mxGeometry>
        </mxCell>
        <mxCell id="0POUTEi5POnKNFN4scmD-1" style="edgeStyle=orthogonalEdgeStyle;rounded=0;orthogonalLoop=1;jettySize=auto;html=1;exitX=1;exitY=0.5;exitDx=0;exitDy=0;entryX=1;entryY=0.5;entryDx=0;entryDy=0;strokeColor=#666666;endArrow=ERoneToMany;endFill=0;startArrow=ERmandOne;startFill=0;fillColor=#f5f5f5;fontFamily=Computer Modern;fontSize=16;" parent="1" source="j06lZG9dQ--dD_zM-TU6-7" target="gSuRSlL41oqAudCzmP_L-12" edge="1">
          <mxGeometry relative="1" as="geometry">
            <mxPoint x="495.0000000000001" y="165" as="sourcePoint" />
            <mxPoint x="495.0000000000001" y="355.0114942528736" as="targetPoint" />
            <Array as="points">
              <mxPoint x="590" y="165" />
              <mxPoint x="590" y="355" />
            </Array>
          </mxGeometry>
        </mxCell>
        <mxCell id="0POUTEi5POnKNFN4scmD-2" style="edgeStyle=orthogonalEdgeStyle;rounded=0;orthogonalLoop=1;jettySize=auto;html=1;exitX=1;exitY=0.5;exitDx=0;exitDy=0;entryX=1;entryY=0.5;entryDx=0;entryDy=0;strokeColor=#666666;startArrow=ERmandOne;startFill=0;endArrow=ERoneToMany;endFill=0;fillColor=#f5f5f5;fontFamily=Computer Modern;fontSize=16;" parent="1" source="j06lZG9dQ--dD_zM-TU6-7" target="gSuRSlL41oqAudCzmP_L-67" edge="1">
          <mxGeometry relative="1" as="geometry">
            <mxPoint x="505" y="165" as="sourcePoint" />
            <mxPoint x="505" y="485" as="targetPoint" />
            <Array as="points">
              <mxPoint x="590" y="165" />
              <mxPoint x="590" y="485" />
            </Array>
          </mxGeometry>
        </mxCell>
        <mxCell id="0POUTEi5POnKNFN4scmD-4" style="edgeStyle=orthogonalEdgeStyle;rounded=0;orthogonalLoop=1;jettySize=auto;html=1;exitX=1;exitY=0.5;exitDx=0;exitDy=0;strokeColor=#666666;startArrow=ERmandOne;startFill=0;endArrow=ERoneToMany;endFill=0;fillColor=#f5f5f5;fontFamily=Computer Modern;fontSize=16;" parent="1" source="gSuRSlL41oqAudCzmP_L-20" target="j06lZG9dQ--dD_zM-TU6-8" edge="1">
          <mxGeometry relative="1" as="geometry" />
        </mxCell>
      </root>
    </mxGraphModel>
  </diagram>
  <diagram id="se_Ws5dvR4rNfFF1b0kc" name="plots">
    <mxGraphModel dx="819" dy="478" grid="1" gridSize="10" guides="1" tooltips="1" connect="1" arrows="1" fold="1" page="1" pageScale="1" pageWidth="4681" pageHeight="3300" math="0" shadow="0">
      <root>
        <mxCell id="0" />
        <mxCell id="1" parent="0" />
        <mxCell id="jjMWMZSMjCuHCsURNHwj-2" value="Perfil de tensão" style="swimlane;fontStyle=0;childLayout=stackLayout;horizontal=1;startSize=30;horizontalStack=0;resizeParent=1;resizeParentMax=0;resizeLast=0;collapsible=1;marginBottom=0;whiteSpace=wrap;html=1;" vertex="1" parent="1">
          <mxGeometry x="200" y="60" width="160" height="240" as="geometry" />
        </mxCell>
        <mxCell id="jjMWMZSMjCuHCsURNHwj-6" value="Nome do circuito" style="text;strokeColor=none;fillColor=none;align=left;verticalAlign=middle;spacingLeft=4;spacingRight=4;overflow=hidden;points=[[0,0.5],[1,0.5]];portConstraint=eastwest;rotatable=0;whiteSpace=wrap;html=1;" vertex="1" parent="jjMWMZSMjCuHCsURNHwj-2">
          <mxGeometry y="30" width="160" height="30" as="geometry" />
        </mxCell>
        <mxCell id="jjMWMZSMjCuHCsURNHwj-3" value="Loop de simulação" style="text;strokeColor=none;fillColor=none;align=left;verticalAlign=middle;spacingLeft=4;spacingRight=4;overflow=hidden;points=[[0,0.5],[1,0.5]];portConstraint=eastwest;rotatable=0;whiteSpace=wrap;html=1;" vertex="1" parent="jjMWMZSMjCuHCsURNHwj-2">
          <mxGeometry y="60" width="160" height="30" as="geometry" />
        </mxCell>
        <mxCell id="jjMWMZSMjCuHCsURNHwj-4" value="Modo de controle" style="text;strokeColor=none;fillColor=none;align=left;verticalAlign=middle;spacingLeft=4;spacingRight=4;overflow=hidden;points=[[0,0.5],[1,0.5]];portConstraint=eastwest;rotatable=0;whiteSpace=wrap;html=1;" vertex="1" parent="jjMWMZSMjCuHCsURNHwj-2">
          <mxGeometry y="90" width="160" height="30" as="geometry" />
        </mxCell>
        <mxCell id="jjMWMZSMjCuHCsURNHwj-5" value="Nível de penetração VE" style="text;strokeColor=none;fillColor=none;align=left;verticalAlign=middle;spacingLeft=4;spacingRight=4;overflow=hidden;points=[[0,0.5],[1,0.5]];portConstraint=eastwest;rotatable=0;whiteSpace=wrap;html=1;" vertex="1" parent="jjMWMZSMjCuHCsURNHwj-2">
          <mxGeometry y="120" width="160" height="30" as="geometry" />
        </mxCell>
        <mxCell id="jjMWMZSMjCuHCsURNHwj-7" value="Nível de penetração GDFV" style="text;strokeColor=none;fillColor=none;align=left;verticalAlign=middle;spacingLeft=4;spacingRight=4;overflow=hidden;points=[[0,0.5],[1,0.5]];portConstraint=eastwest;rotatable=0;whiteSpace=wrap;html=1;" vertex="1" parent="jjMWMZSMjCuHCsURNHwj-2">
          <mxGeometry y="150" width="160" height="30" as="geometry" />
        </mxCell>
        <mxCell id="jjMWMZSMjCuHCsURNHwj-8" value="Dia da semana" style="text;strokeColor=none;fillColor=none;align=left;verticalAlign=middle;spacingLeft=4;spacingRight=4;overflow=hidden;points=[[0,0.5],[1,0.5]];portConstraint=eastwest;rotatable=0;whiteSpace=wrap;html=1;" vertex="1" parent="jjMWMZSMjCuHCsURNHwj-2">
          <mxGeometry y="180" width="160" height="30" as="geometry" />
        </mxCell>
        <mxCell id="jjMWMZSMjCuHCsURNHwj-9" value="Número da residência" style="text;strokeColor=none;fillColor=none;align=left;verticalAlign=middle;spacingLeft=4;spacingRight=4;overflow=hidden;points=[[0,0.5],[1,0.5]];portConstraint=eastwest;rotatable=0;whiteSpace=wrap;html=1;" vertex="1" parent="jjMWMZSMjCuHCsURNHwj-2">
          <mxGeometry y="210" width="160" height="30" as="geometry" />
        </mxCell>
        <mxCell id="jjMWMZSMjCuHCsURNHwj-10" value="Compensação geral" style="swimlane;fontStyle=0;childLayout=stackLayout;horizontal=1;startSize=30;horizontalStack=0;resizeParent=1;resizeParentMax=0;resizeLast=0;collapsible=1;marginBottom=0;whiteSpace=wrap;html=1;" vertex="1" parent="1">
          <mxGeometry x="380" y="60" width="160" height="90" as="geometry" />
        </mxCell>
        <mxCell id="jjMWMZSMjCuHCsURNHwj-11" value="Nome do circuito" style="text;strokeColor=none;fillColor=none;align=left;verticalAlign=middle;spacingLeft=4;spacingRight=4;overflow=hidden;points=[[0,0.5],[1,0.5]];portConstraint=eastwest;rotatable=0;whiteSpace=wrap;html=1;" vertex="1" parent="jjMWMZSMjCuHCsURNHwj-10">
          <mxGeometry y="30" width="160" height="30" as="geometry" />
        </mxCell>
        <mxCell id="jjMWMZSMjCuHCsURNHwj-13" value="Modo de controle" style="text;strokeColor=none;fillColor=none;align=left;verticalAlign=middle;spacingLeft=4;spacingRight=4;overflow=hidden;points=[[0,0.5],[1,0.5]];portConstraint=eastwest;rotatable=0;whiteSpace=wrap;html=1;" vertex="1" parent="jjMWMZSMjCuHCsURNHwj-10">
          <mxGeometry y="60" width="160" height="30" as="geometry" />
        </mxCell>
        <mxCell id="jjMWMZSMjCuHCsURNHwj-19" value="Gráfico 2D:&lt;br&gt;Tensões x Tempo&amp;nbsp;" style="rounded=0;whiteSpace=wrap;html=1;" vertex="1" parent="1">
          <mxGeometry x="200" y="310" width="160" height="60" as="geometry" />
        </mxCell>
        <mxCell id="jjMWMZSMjCuHCsURNHwj-29" value="Gráfico 3D:&lt;br&gt;NP_VE x NP_GDFV x Compensação&amp;nbsp;" style="rounded=0;whiteSpace=wrap;html=1;" vertex="1" parent="1">
          <mxGeometry x="380" y="160" width="160" height="60" as="geometry" />
        </mxCell>
        <mxCell id="jjMWMZSMjCuHCsURNHwj-30" value="Compensação" style="swimlane;fontStyle=0;childLayout=stackLayout;horizontal=1;startSize=30;horizontalStack=0;resizeParent=1;resizeParentMax=0;resizeLast=0;collapsible=1;marginBottom=0;whiteSpace=wrap;html=1;" vertex="1" parent="1">
          <mxGeometry x="560" y="60" width="160" height="150" as="geometry">
            <mxRectangle x="590" y="60" width="120" height="30" as="alternateBounds" />
          </mxGeometry>
        </mxCell>
        <mxCell id="jjMWMZSMjCuHCsURNHwj-31" value="Nome do circuito" style="text;strokeColor=none;fillColor=none;align=left;verticalAlign=middle;spacingLeft=4;spacingRight=4;overflow=hidden;points=[[0,0.5],[1,0.5]];portConstraint=eastwest;rotatable=0;whiteSpace=wrap;html=1;" vertex="1" parent="jjMWMZSMjCuHCsURNHwj-30">
          <mxGeometry y="30" width="160" height="30" as="geometry" />
        </mxCell>
        <mxCell id="jjMWMZSMjCuHCsURNHwj-32" value="Modo de controle" style="text;strokeColor=none;fillColor=none;align=left;verticalAlign=middle;spacingLeft=4;spacingRight=4;overflow=hidden;points=[[0,0.5],[1,0.5]];portConstraint=eastwest;rotatable=0;whiteSpace=wrap;html=1;" vertex="1" parent="jjMWMZSMjCuHCsURNHwj-30">
          <mxGeometry y="60" width="160" height="30" as="geometry" />
        </mxCell>
        <mxCell id="jjMWMZSMjCuHCsURNHwj-33" value="Nível de penetração VE" style="text;strokeColor=none;fillColor=none;align=left;verticalAlign=middle;spacingLeft=4;spacingRight=4;overflow=hidden;points=[[0,0.5],[1,0.5]];portConstraint=eastwest;rotatable=0;whiteSpace=wrap;html=1;" vertex="1" parent="jjMWMZSMjCuHCsURNHwj-30">
          <mxGeometry y="90" width="160" height="30" as="geometry" />
        </mxCell>
        <mxCell id="jjMWMZSMjCuHCsURNHwj-34" value="Nível de penetração GDFV" style="text;strokeColor=none;fillColor=none;align=left;verticalAlign=middle;spacingLeft=4;spacingRight=4;overflow=hidden;points=[[0,0.5],[1,0.5]];portConstraint=eastwest;rotatable=0;whiteSpace=wrap;html=1;" vertex="1" parent="jjMWMZSMjCuHCsURNHwj-30">
          <mxGeometry y="120" width="160" height="30" as="geometry" />
        </mxCell>
        <mxCell id="jjMWMZSMjCuHCsURNHwj-35" value="Gráfico 3D:&lt;br&gt;NP_VE x NP_GDFV x Compensação&amp;nbsp;" style="rounded=0;whiteSpace=wrap;html=1;" vertex="1" parent="1">
          <mxGeometry x="560" y="220" width="160" height="60" as="geometry" />
        </mxCell>
        <mxCell id="jjMWMZSMjCuHCsURNHwj-36" value="Energias" style="swimlane;fontStyle=0;childLayout=stackLayout;horizontal=1;startSize=30;horizontalStack=0;resizeParent=1;resizeParentMax=0;resizeLast=0;collapsible=1;marginBottom=0;whiteSpace=wrap;html=1;" vertex="1" parent="1">
          <mxGeometry x="750" y="60" width="160" height="150" as="geometry" />
        </mxCell>
        <mxCell id="jjMWMZSMjCuHCsURNHwj-37" value="Nome do circuito" style="text;strokeColor=none;fillColor=none;align=left;verticalAlign=middle;spacingLeft=4;spacingRight=4;overflow=hidden;points=[[0,0.5],[1,0.5]];portConstraint=eastwest;rotatable=0;whiteSpace=wrap;html=1;" vertex="1" parent="jjMWMZSMjCuHCsURNHwj-36">
          <mxGeometry y="30" width="160" height="30" as="geometry" />
        </mxCell>
        <mxCell id="jjMWMZSMjCuHCsURNHwj-38" value="Modo de controle" style="text;strokeColor=none;fillColor=none;align=left;verticalAlign=middle;spacingLeft=4;spacingRight=4;overflow=hidden;points=[[0,0.5],[1,0.5]];portConstraint=eastwest;rotatable=0;whiteSpace=wrap;html=1;" vertex="1" parent="jjMWMZSMjCuHCsURNHwj-36">
          <mxGeometry y="60" width="160" height="30" as="geometry" />
        </mxCell>
        <mxCell id="jjMWMZSMjCuHCsURNHwj-39" value="Barra alvo" style="text;strokeColor=none;fillColor=none;align=left;verticalAlign=middle;spacingLeft=4;spacingRight=4;overflow=hidden;points=[[0,0.5],[1,0.5]];portConstraint=eastwest;rotatable=0;whiteSpace=wrap;html=1;" vertex="1" parent="jjMWMZSMjCuHCsURNHwj-36">
          <mxGeometry y="90" width="160" height="30" as="geometry" />
        </mxCell>
        <mxCell id="jjMWMZSMjCuHCsURNHwj-40" value="Nível de penetração GDFV" style="text;strokeColor=none;fillColor=none;align=left;verticalAlign=middle;spacingLeft=4;spacingRight=4;overflow=hidden;points=[[0,0.5],[1,0.5]];portConstraint=eastwest;rotatable=0;whiteSpace=wrap;html=1;" vertex="1" parent="jjMWMZSMjCuHCsURNHwj-36">
          <mxGeometry y="120" width="160" height="30" as="geometry" />
        </mxCell>
        <mxCell id="jjMWMZSMjCuHCsURNHwj-41" value="Gráfico 3D:&lt;br&gt;Níveis de penetração x Energiais em (kWh)" style="rounded=0;whiteSpace=wrap;html=1;" vertex="1" parent="1">
          <mxGeometry x="750" y="220" width="160" height="60" as="geometry" />
        </mxCell>
        <mxCell id="jjMWMZSMjCuHCsURNHwj-42" value="Perdas Técnicas" style="swimlane;fontStyle=0;childLayout=stackLayout;horizontal=1;startSize=30;horizontalStack=0;resizeParent=1;resizeParentMax=0;resizeLast=0;collapsible=1;marginBottom=0;whiteSpace=wrap;html=1;" vertex="1" parent="1">
          <mxGeometry x="930" y="60" width="160" height="150" as="geometry" />
        </mxCell>
        <mxCell id="jjMWMZSMjCuHCsURNHwj-43" value="Nome do circuito" style="text;strokeColor=none;fillColor=none;align=left;verticalAlign=middle;spacingLeft=4;spacingRight=4;overflow=hidden;points=[[0,0.5],[1,0.5]];portConstraint=eastwest;rotatable=0;whiteSpace=wrap;html=1;" vertex="1" parent="jjMWMZSMjCuHCsURNHwj-42">
          <mxGeometry y="30" width="160" height="30" as="geometry" />
        </mxCell>
        <mxCell id="jjMWMZSMjCuHCsURNHwj-44" value="Modo de controle" style="text;strokeColor=none;fillColor=none;align=left;verticalAlign=middle;spacingLeft=4;spacingRight=4;overflow=hidden;points=[[0,0.5],[1,0.5]];portConstraint=eastwest;rotatable=0;whiteSpace=wrap;html=1;" vertex="1" parent="jjMWMZSMjCuHCsURNHwj-42">
          <mxGeometry y="60" width="160" height="30" as="geometry" />
        </mxCell>
        <mxCell id="jjMWMZSMjCuHCsURNHwj-45" value="Barra alvo" style="text;strokeColor=none;fillColor=none;align=left;verticalAlign=middle;spacingLeft=4;spacingRight=4;overflow=hidden;points=[[0,0.5],[1,0.5]];portConstraint=eastwest;rotatable=0;whiteSpace=wrap;html=1;" vertex="1" parent="jjMWMZSMjCuHCsURNHwj-42">
          <mxGeometry y="90" width="160" height="30" as="geometry" />
        </mxCell>
        <mxCell id="jjMWMZSMjCuHCsURNHwj-46" value="Nível de penetração GDFV" style="text;strokeColor=none;fillColor=none;align=left;verticalAlign=middle;spacingLeft=4;spacingRight=4;overflow=hidden;points=[[0,0.5],[1,0.5]];portConstraint=eastwest;rotatable=0;whiteSpace=wrap;html=1;" vertex="1" parent="jjMWMZSMjCuHCsURNHwj-42">
          <mxGeometry y="120" width="160" height="30" as="geometry" />
        </mxCell>
        <mxCell id="jjMWMZSMjCuHCsURNHwj-47" value="Gráfico 3D:&lt;br&gt;Níveis de penetração x Energiais em (kWh)" style="rounded=0;whiteSpace=wrap;html=1;" vertex="1" parent="1">
          <mxGeometry x="930" y="220" width="160" height="60" as="geometry" />
        </mxCell>
      </root>
    </mxGraphModel>
  </diagram>
</mxfile>
